<mxfile host="Electron" modified="2024-02-14T15:30:03.089Z" agent="Mozilla/5.0 (Windows NT 10.0; Win64; x64) AppleWebKit/537.36 (KHTML, like Gecko) draw.io/23.0.2 Chrome/120.0.6099.109 Electron/28.1.0 Safari/537.36" etag="orlrJfYdIdtWk2quyZPv" version="23.0.2" type="device">
  <diagram name="第 1 页" id="0UkRAWhv97G_hta1VuXM">
    <mxGraphModel dx="1434" dy="878" grid="1" gridSize="10" guides="1" tooltips="1" connect="1" arrows="1" fold="1" page="1" pageScale="1" pageWidth="827" pageHeight="1169" math="0" shadow="0">
      <root>
        <mxCell id="0" />
        <mxCell id="1" parent="0" />
        <mxCell id="wZC5xmdolLClaahxzQqj-42" style="edgeStyle=orthogonalEdgeStyle;rounded=0;orthogonalLoop=1;jettySize=auto;html=1;exitX=0.5;exitY=1;exitDx=0;exitDy=0;entryX=0.5;entryY=0;entryDx=0;entryDy=0;" edge="1" parent="1" source="wZC5xmdolLClaahxzQqj-5" target="wZC5xmdolLClaahxzQqj-15">
          <mxGeometry relative="1" as="geometry" />
        </mxCell>
        <mxCell id="wZC5xmdolLClaahxzQqj-5" value="socket( )" style="rounded=1;whiteSpace=wrap;html=1;fontFamily=Maple Mono SC NF;" vertex="1" parent="1">
          <mxGeometry x="499" y="250" width="120" height="40" as="geometry" />
        </mxCell>
        <mxCell id="wZC5xmdolLClaahxzQqj-69" style="edgeStyle=orthogonalEdgeStyle;rounded=0;orthogonalLoop=1;jettySize=auto;html=1;exitX=0.5;exitY=1;exitDx=0;exitDy=0;entryX=1;entryY=0.5;entryDx=0;entryDy=0;curved=1;" edge="1" parent="1" source="wZC5xmdolLClaahxzQqj-14" target="wZC5xmdolLClaahxzQqj-18">
          <mxGeometry relative="1" as="geometry">
            <mxPoint x="604" y="645" as="sourcePoint" />
          </mxGeometry>
        </mxCell>
        <mxCell id="wZC5xmdolLClaahxzQqj-14" value="accept( )" style="rounded=1;whiteSpace=wrap;html=1;fontFamily=Maple Mono SC NF;" vertex="1" parent="1">
          <mxGeometry x="544" y="550" width="120" height="40" as="geometry" />
        </mxCell>
        <mxCell id="wZC5xmdolLClaahxzQqj-43" style="edgeStyle=orthogonalEdgeStyle;rounded=0;orthogonalLoop=1;jettySize=auto;html=1;exitX=0.5;exitY=1;exitDx=0;exitDy=0;entryX=0.5;entryY=0;entryDx=0;entryDy=0;" edge="1" parent="1" source="wZC5xmdolLClaahxzQqj-15" target="wZC5xmdolLClaahxzQqj-16">
          <mxGeometry relative="1" as="geometry" />
        </mxCell>
        <mxCell id="wZC5xmdolLClaahxzQqj-15" value="bind( )" style="rounded=1;whiteSpace=wrap;html=1;fontFamily=Maple Mono SC NF;" vertex="1" parent="1">
          <mxGeometry x="499" y="320" width="120" height="40" as="geometry" />
        </mxCell>
        <mxCell id="wZC5xmdolLClaahxzQqj-65" style="edgeStyle=orthogonalEdgeStyle;rounded=0;orthogonalLoop=1;jettySize=auto;html=1;exitX=0;exitY=0.5;exitDx=0;exitDy=0;entryX=0.5;entryY=0;entryDx=0;entryDy=0;curved=1;" edge="1" parent="1" source="wZC5xmdolLClaahxzQqj-16" target="wZC5xmdolLClaahxzQqj-59">
          <mxGeometry relative="1" as="geometry">
            <Array as="points">
              <mxPoint x="674" y="400" />
              <mxPoint x="674" y="460" />
              <mxPoint x="434" y="460" />
            </Array>
          </mxGeometry>
        </mxCell>
        <mxCell id="wZC5xmdolLClaahxzQqj-86" value="将socket1传给poll" style="edgeLabel;html=1;align=center;verticalAlign=middle;resizable=0;points=[];fontFamily=Maple Mono SC NF;" vertex="1" connectable="0" parent="wZC5xmdolLClaahxzQqj-65">
          <mxGeometry x="0.2544" relative="1" as="geometry">
            <mxPoint as="offset" />
          </mxGeometry>
        </mxCell>
        <mxCell id="wZC5xmdolLClaahxzQqj-16" value="listen( )" style="rounded=1;whiteSpace=wrap;html=1;fontFamily=Maple Mono SC NF;" vertex="1" parent="1">
          <mxGeometry x="499" y="380" width="120" height="40" as="geometry" />
        </mxCell>
        <mxCell id="wZC5xmdolLClaahxzQqj-17" value="write( )" style="rounded=1;whiteSpace=wrap;html=1;fontFamily=Maple Mono SC NF;" vertex="1" parent="1">
          <mxGeometry x="384" y="735" width="120" height="40" as="geometry" />
        </mxCell>
        <mxCell id="wZC5xmdolLClaahxzQqj-71" style="edgeStyle=orthogonalEdgeStyle;rounded=0;orthogonalLoop=1;jettySize=auto;html=1;exitX=0.5;exitY=1;exitDx=0;exitDy=0;entryX=0.5;entryY=0;entryDx=0;entryDy=0;" edge="1" parent="1" source="wZC5xmdolLClaahxzQqj-18" target="wZC5xmdolLClaahxzQqj-17">
          <mxGeometry relative="1" as="geometry" />
        </mxCell>
        <mxCell id="wZC5xmdolLClaahxzQqj-18" value="read( )" style="rounded=1;whiteSpace=wrap;html=1;fontFamily=Maple Mono SC NF;" vertex="1" parent="1">
          <mxGeometry x="384" y="665" width="120" height="40" as="geometry" />
        </mxCell>
        <mxCell id="wZC5xmdolLClaahxzQqj-28" style="edgeStyle=orthogonalEdgeStyle;rounded=0;orthogonalLoop=1;jettySize=auto;html=1;exitX=0.5;exitY=1;exitDx=0;exitDy=0;entryX=0.5;entryY=0;entryDx=0;entryDy=0;" edge="1" parent="1" source="wZC5xmdolLClaahxzQqj-22" target="wZC5xmdolLClaahxzQqj-25">
          <mxGeometry relative="1" as="geometry" />
        </mxCell>
        <mxCell id="wZC5xmdolLClaahxzQqj-22" value="&lt;font&gt;socket( )&lt;/font&gt;" style="rounded=1;whiteSpace=wrap;html=1;fontFamily=Maple Mono SC NF;" vertex="1" parent="1">
          <mxGeometry x="174" y="340" width="120" height="40" as="geometry" />
        </mxCell>
        <mxCell id="wZC5xmdolLClaahxzQqj-23" value="close( )" style="rounded=1;whiteSpace=wrap;html=1;fontFamily=Maple Mono SC NF;" vertex="1" parent="1">
          <mxGeometry x="174" y="762.5" width="120" height="40" as="geometry" />
        </mxCell>
        <mxCell id="wZC5xmdolLClaahxzQqj-32" style="edgeStyle=orthogonalEdgeStyle;rounded=0;orthogonalLoop=1;jettySize=auto;html=1;exitX=0.5;exitY=1;exitDx=0;exitDy=0;entryX=0.5;entryY=0;entryDx=0;entryDy=0;" edge="1" parent="1" source="wZC5xmdolLClaahxzQqj-24" target="wZC5xmdolLClaahxzQqj-23">
          <mxGeometry relative="1" as="geometry" />
        </mxCell>
        <mxCell id="wZC5xmdolLClaahxzQqj-33" style="edgeStyle=orthogonalEdgeStyle;rounded=0;orthogonalLoop=1;jettySize=auto;html=1;exitX=0;exitY=0.5;exitDx=0;exitDy=0;entryX=0;entryY=0.5;entryDx=0;entryDy=0;curved=1;" edge="1" parent="1" source="wZC5xmdolLClaahxzQqj-24" target="wZC5xmdolLClaahxzQqj-26">
          <mxGeometry relative="1" as="geometry" />
        </mxCell>
        <mxCell id="wZC5xmdolLClaahxzQqj-24" value="read( )" style="rounded=1;whiteSpace=wrap;html=1;fontFamily=Maple Mono SC NF;" vertex="1" parent="1">
          <mxGeometry x="174" y="697.5" width="120" height="40" as="geometry" />
        </mxCell>
        <mxCell id="wZC5xmdolLClaahxzQqj-29" style="edgeStyle=orthogonalEdgeStyle;rounded=0;orthogonalLoop=1;jettySize=auto;html=1;exitX=0.5;exitY=1;exitDx=0;exitDy=0;entryX=0.5;entryY=0;entryDx=0;entryDy=0;" edge="1" parent="1" source="wZC5xmdolLClaahxzQqj-25" target="wZC5xmdolLClaahxzQqj-26">
          <mxGeometry relative="1" as="geometry" />
        </mxCell>
        <mxCell id="wZC5xmdolLClaahxzQqj-66" style="edgeStyle=orthogonalEdgeStyle;rounded=0;orthogonalLoop=1;jettySize=auto;html=1;exitX=1;exitY=0.5;exitDx=0;exitDy=0;entryX=0;entryY=0;entryDx=0;entryDy=0;curved=1;" edge="1" parent="1" source="wZC5xmdolLClaahxzQqj-25" target="wZC5xmdolLClaahxzQqj-59">
          <mxGeometry relative="1" as="geometry" />
        </mxCell>
        <mxCell id="wZC5xmdolLClaahxzQqj-25" value="connect( )" style="rounded=1;whiteSpace=wrap;html=1;fontFamily=Maple Mono SC NF;" vertex="1" parent="1">
          <mxGeometry x="174" y="410" width="120" height="40" as="geometry" />
        </mxCell>
        <mxCell id="wZC5xmdolLClaahxzQqj-30" style="edgeStyle=orthogonalEdgeStyle;rounded=0;orthogonalLoop=1;jettySize=auto;html=1;exitX=0.5;exitY=1;exitDx=0;exitDy=0;entryX=0.5;entryY=0;entryDx=0;entryDy=0;" edge="1" parent="1" source="wZC5xmdolLClaahxzQqj-26" target="wZC5xmdolLClaahxzQqj-24">
          <mxGeometry relative="1" as="geometry" />
        </mxCell>
        <mxCell id="wZC5xmdolLClaahxzQqj-26" value="write( )" style="rounded=1;whiteSpace=wrap;html=1;fontFamily=Maple Mono SC NF;" vertex="1" parent="1">
          <mxGeometry x="174" y="480" width="120" height="40" as="geometry" />
        </mxCell>
        <mxCell id="wZC5xmdolLClaahxzQqj-56" value="&lt;font style=&quot;font-size: 15px;&quot; face=&quot;Maple Mono SC NF&quot;&gt;Client&lt;/font&gt;" style="text;html=1;align=center;verticalAlign=middle;resizable=0;points=[];autosize=1;strokeColor=none;fillColor=none;" vertex="1" parent="1">
          <mxGeometry x="184" y="290" width="80" height="30" as="geometry" />
        </mxCell>
        <mxCell id="wZC5xmdolLClaahxzQqj-57" value="&lt;font style=&quot;font-size: 15px;&quot; face=&quot;Maple Mono SC NF&quot;&gt;Server&lt;/font&gt;" style="text;html=1;align=center;verticalAlign=middle;resizable=0;points=[];autosize=1;strokeColor=none;fillColor=none;" vertex="1" parent="1">
          <mxGeometry x="519" y="210" width="80" height="30" as="geometry" />
        </mxCell>
        <mxCell id="wZC5xmdolLClaahxzQqj-67" style="edgeStyle=orthogonalEdgeStyle;rounded=0;orthogonalLoop=1;jettySize=auto;html=1;exitX=1;exitY=0.5;exitDx=0;exitDy=0;entryX=0.5;entryY=0;entryDx=0;entryDy=0;curved=1;" edge="1" parent="1" source="wZC5xmdolLClaahxzQqj-59" target="wZC5xmdolLClaahxzQqj-14">
          <mxGeometry relative="1" as="geometry" />
        </mxCell>
        <mxCell id="wZC5xmdolLClaahxzQqj-68" style="edgeStyle=orthogonalEdgeStyle;rounded=0;orthogonalLoop=1;jettySize=auto;html=1;exitX=0.5;exitY=1;exitDx=0;exitDy=0;entryX=0;entryY=0.5;entryDx=0;entryDy=0;curved=1;" edge="1" parent="1" source="wZC5xmdolLClaahxzQqj-59" target="wZC5xmdolLClaahxzQqj-18">
          <mxGeometry relative="1" as="geometry">
            <mxPoint x="434" y="635" as="sourcePoint" />
          </mxGeometry>
        </mxCell>
        <mxCell id="wZC5xmdolLClaahxzQqj-82" value="有已连接的&lt;br style=&quot;border-color: var(--border-color); font-size: 12px; background-color: rgb(251, 251, 251);&quot;&gt;&lt;span style=&quot;font-size: 12px; background-color: rgb(251, 251, 251);&quot;&gt;client发送数据&lt;/span&gt;" style="edgeLabel;html=1;align=center;verticalAlign=middle;resizable=0;points=[];fontFamily=Maple Mono SC NF;" vertex="1" connectable="0" parent="wZC5xmdolLClaahxzQqj-68">
          <mxGeometry x="-0.359" y="-3" relative="1" as="geometry">
            <mxPoint x="-20" y="1" as="offset" />
          </mxGeometry>
        </mxCell>
        <mxCell id="wZC5xmdolLClaahxzQqj-59" value="&lt;font face=&quot;Maple Mono SC NF&quot;&gt;poll&lt;/font&gt;" style="ellipse;whiteSpace=wrap;html=1;" vertex="1" parent="1">
          <mxGeometry x="374" y="500" width="120" height="80" as="geometry" />
        </mxCell>
        <mxCell id="wZC5xmdolLClaahxzQqj-70" value="&lt;font face=&quot;Maple Mono SC NF&quot;&gt;循环poll&lt;br&gt;监听描述符组&lt;/font&gt;" style="text;html=1;align=center;verticalAlign=middle;resizable=0;points=[];autosize=1;strokeColor=none;fillColor=none;" vertex="1" parent="1">
          <mxGeometry x="264" y="520" width="110" height="40" as="geometry" />
        </mxCell>
        <mxCell id="wZC5xmdolLClaahxzQqj-75" value="client连接socket1&lt;br&gt;变为可读状态" style="whiteSpace=wrap;html=1;shape=mxgraph.basic.oval_callout;fontFamily=Maple Mono SC NF;" vertex="1" parent="1">
          <mxGeometry x="294" y="310" width="180" height="100" as="geometry" />
        </mxCell>
        <mxCell id="wZC5xmdolLClaahxzQqj-77" value="收到poll通知&lt;br&gt;开始accept" style="text;html=1;align=center;verticalAlign=middle;resizable=0;points=[];autosize=1;strokeColor=none;fillColor=none;fontFamily=Maple Mono SC NF;" vertex="1" parent="1">
          <mxGeometry x="504" y="490" width="110" height="40" as="geometry" />
        </mxCell>
        <mxCell id="wZC5xmdolLClaahxzQqj-81" style="edgeStyle=orthogonalEdgeStyle;rounded=0;orthogonalLoop=1;jettySize=auto;html=1;exitX=0;exitY=0.5;exitDx=0;exitDy=0;entryX=0.067;entryY=0.775;entryDx=0;entryDy=0;entryPerimeter=0;curved=1;" edge="1" parent="1" source="wZC5xmdolLClaahxzQqj-17" target="wZC5xmdolLClaahxzQqj-59">
          <mxGeometry relative="1" as="geometry">
            <Array as="points">
              <mxPoint x="384" y="700" />
              <mxPoint x="284" y="700" />
              <mxPoint x="284" y="562" />
            </Array>
          </mxGeometry>
        </mxCell>
        <mxCell id="wZC5xmdolLClaahxzQqj-83" value="写完数据后&lt;br&gt;继续等待&lt;br&gt;poll通知" style="edgeLabel;html=1;align=center;verticalAlign=middle;resizable=0;points=[];fontFamily=Maple Mono SC NF;" vertex="1" connectable="0" parent="wZC5xmdolLClaahxzQqj-81">
          <mxGeometry x="0.1414" y="-2" relative="1" as="geometry">
            <mxPoint x="-2" y="-2" as="offset" />
          </mxGeometry>
        </mxCell>
      </root>
    </mxGraphModel>
  </diagram>
</mxfile>
